<svg id="SvgjsSvg1006" width="1424" height="543.0909090909092" xmlns="http://www.w3.org/2000/svg" version="1.1" xmlns:xlink="http://www.w3.org/1999/xlink" xmlns:svgjs="http://svgjs.com/svgjs"><defs id="SvgjsDefs1007"><pattern patternUnits="userSpaceOnUse" id="pattern_mark_0" width="300" height="300"><text x="150" y="100" fill="rgba(229,229,229,0.8)" font-size="18" transform="rotate(-45, 150, 150)" style="dominant-baseline: middle; text-anchor: middle;"></text></pattern><pattern patternUnits="userSpaceOnUse" id="pattern_mark_1" width="300" height="300"><text x="150" y="200" fill="rgba(229,229,229,0.8)" font-size="18" transform="rotate(-45, 150, 150)" style="dominant-baseline: middle; text-anchor: middle;"></text></pattern><pattern id="SvgjsPattern1063" x="0" y="0" width="60.5" height="60.5" patternUnits="userSpaceOnUse"><image id="SvgjsImage1064" xlink:href="https://iconsapi.com/64004f55e4b0ca9b1f461d60.svg" width="60.5" height="60.5" preserveAspectRatio="none" crossOrigin="anonymous" x="0" y="0"></image></pattern><marker id="SvgjsMarker1067" markerWidth="12" markerHeight="8" refX="9" refY="4" viewBox="0 0 12 8" orient="auto" markerUnits="userSpaceOnUse" stroke-dasharray="0,0"><path id="SvgjsPath1068" d="M0,0 L12,4 L0,8 L0,0" fill="#323232" stroke="#323232" stroke-width="1"></path></marker><marker id="SvgjsMarker1093" markerWidth="12" markerHeight="8" refX="9" refY="4" viewBox="0 0 12 8" orient="auto" markerUnits="userSpaceOnUse" stroke-dasharray="0,0"><path id="SvgjsPath1094" d="M0,0 L12,4 L0,8 L0,0" fill="#323232" stroke="#323232" stroke-width="1"></path></marker><marker id="SvgjsMarker1097" markerWidth="12" markerHeight="8" refX="9" refY="4" viewBox="0 0 12 8" orient="auto" markerUnits="userSpaceOnUse" stroke-dasharray="0,0"><path id="SvgjsPath1098" d="M0,0 L12,4 L0,8 L0,0" fill="#323232" stroke="#323232" stroke-width="1"></path></marker><pattern id="SvgjsPattern1129" x="0" y="0" width="36" height="36" patternUnits="userSpaceOnUse"><image id="SvgjsImage1130" xlink:href="https://iconsapi.com/64004f55e4b0ca9b1f461d60.svg" width="36" height="36" preserveAspectRatio="none" crossOrigin="anonymous" x="0" y="0"></image></pattern><marker id="SvgjsMarker1139" markerWidth="12" markerHeight="8" refX="9" refY="4" viewBox="0 0 12 8" orient="auto" markerUnits="userSpaceOnUse" stroke-dasharray="0,0"><path id="SvgjsPath1140" d="M0,0 L12,4 L0,8 L0,0" fill="#323232" stroke="#323232" stroke-width="1"></path></marker><marker id="SvgjsMarker1143" markerWidth="12" markerHeight="8" refX="9" refY="4" viewBox="0 0 12 8" orient="auto" markerUnits="userSpaceOnUse" stroke-dasharray="0,0"><path id="SvgjsPath1144" d="M0,0 L12,4 L0,8 L0,0" fill="#323232" stroke="#323232" stroke-width="1"></path></marker><marker id="SvgjsMarker1203" markerWidth="12" markerHeight="8" refX="9" refY="4" viewBox="0 0 12 8" orient="auto" markerUnits="userSpaceOnUse" stroke-dasharray="0,0"><path id="SvgjsPath1204" d="M0,0 L12,4 L0,8 L0,0" fill="#323232" stroke="#323232" stroke-width="1"></path></marker><marker id="SvgjsMarker1207" markerWidth="12" markerHeight="8" refX="9" refY="4" viewBox="0 0 12 8" orient="auto" markerUnits="userSpaceOnUse" stroke-dasharray="0,0"><path id="SvgjsPath1208" d="M0,0 L12,4 L0,8 L0,0" fill="#323232" stroke="#323232" stroke-width="1"></path></marker><marker id="SvgjsMarker1211" markerWidth="12" markerHeight="8" refX="9" refY="4" viewBox="0 0 12 8" orient="auto" markerUnits="userSpaceOnUse" stroke-dasharray="0,0"><path id="SvgjsPath1212" d="M0,0 L12,4 L0,8 L0,0" fill="#323232" stroke="#323232" stroke-width="1"></path></marker><marker id="SvgjsMarker1215" markerWidth="12" markerHeight="8" refX="9" refY="4" viewBox="0 0 12 8" orient="auto" markerUnits="userSpaceOnUse" stroke-dasharray="0,0"><path id="SvgjsPath1216" d="M0,0 L12,4 L0,8 L0,0" fill="#323232" stroke="#323232" stroke-width="1"></path></marker><marker id="SvgjsMarker1232" markerWidth="12" markerHeight="8" refX="9" refY="4" viewBox="0 0 12 8" orient="auto" markerUnits="userSpaceOnUse" stroke-dasharray="0,0"><path id="SvgjsPath1233" d="M0,0 L12,4 L0,8 L0,0" fill="#323232" stroke="#323232" stroke-width="1"></path></marker><marker id="SvgjsMarker1236" markerWidth="12" markerHeight="8" refX="9" refY="4" viewBox="0 0 12 8" orient="auto" markerUnits="userSpaceOnUse" stroke-dasharray="0,0"><path id="SvgjsPath1237" d="M0,0 L12,4 L0,8 L0,0" fill="#323232" stroke="#323232" stroke-width="1"></path></marker><pattern id="SvgjsPattern1240" x="0" y="0" width="47.9999885559082" height="46.25" patternUnits="userSpaceOnUse"><image id="SvgjsImage1241" xlink:href="https://iconsapi.com/64004f55e4b0ca9b1f461d60.svg" width="47.9999885559082" height="46.25" preserveAspectRatio="none" crossOrigin="anonymous" x="0" y="0"></image></pattern><marker id="SvgjsMarker1260" markerWidth="12" markerHeight="8" refX="9" refY="4" viewBox="0 0 12 8" orient="auto" markerUnits="userSpaceOnUse" stroke-dasharray="0,0"><path id="SvgjsPath1261" d="M0,0 L12,4 L0,8 L0,0" fill="#323232" stroke="#323232" stroke-width="1"></path></marker><marker id="SvgjsMarker1264" markerWidth="12" markerHeight="8" refX="9" refY="4" viewBox="0 0 12 8" orient="auto" markerUnits="userSpaceOnUse" stroke-dasharray="0,0"><path id="SvgjsPath1265" d="M0,0 L12,4 L0,8 L0,0" fill="#323232" stroke="#323232" stroke-width="1"></path></marker><marker id="SvgjsMarker1268" markerWidth="12" markerHeight="8" refX="9" refY="4" viewBox="0 0 12 8" orient="auto" markerUnits="userSpaceOnUse" stroke-dasharray="0,0"><path id="SvgjsPath1269" d="M0,0 L12,4 L0,8 L0,0" fill="#323232" stroke="#323232" stroke-width="1"></path></marker></defs><rect id="svgbackgroundid" width="1424" height="543.0909090909092" fill="transparent"></rect><rect id="SvgjsRect1009" width="1424" height="543.0909090909092" fill="url(#pattern_mark_0)"></rect><rect id="SvgjsRect1010" width="1424" height="543.0909090909092" fill="url(#pattern_mark_1)"></rect><g id="SvgjsG1011" transform="translate(379,454.3636363636365)"><path id="SvgjsPath1012" d="M 0 0L 619.591 0L 619.591 63.727L 0 63.727Z" stroke="rgba(33,41,48,1)" stroke-width="1.5" fill-opacity="1" fill="#f2f2f2"></path><g id="SvgjsG1013"><text id="SvgjsText1014" font-family="&quot;Microsoft YaHei&quot;, 微软雅黑, Arial" text-anchor="middle" font-size="13px" width="600px" fill="#323232" font-weight="400" align="middle" lineHeight="125%" anchor="middle" family="&quot;Microsoft YaHei&quot;, 微软雅黑, Arial" size="13px" weight="400" font-style="" opacity="1" y="21.2385" transform="rotate(0)"></text></g></g><g id="SvgjsG1015" transform="translate(174,25)"><path id="SvgjsPath1016" d="M 0 0L 167 0L 167 312L 0 312Z" stroke="rgba(33,41,48,1)" stroke-width="1.5" fill-opacity="1" fill="#dbf5f5"></path><g id="SvgjsG1017"><text id="SvgjsText1018" font-family="&quot;Microsoft YaHei&quot;, 微软雅黑, Arial" text-anchor="middle" font-size="13px" width="147px" fill="#323232" font-weight="400" align="middle" lineHeight="125%" anchor="middle" family="&quot;Microsoft YaHei&quot;, 微软雅黑, Arial" size="13px" weight="400" font-style="" opacity="1" y="145.375" transform="rotate(0)"></text></g></g><g id="SvgjsG1019" transform="translate(202,54)"><path id="SvgjsPath1020" d="M 16.667 0L 94.333 0C 116.556 0 116.556 50 94.333 50L 16.667 50C -5.556 50 -5.556 0 16.667 0Z" stroke="rgba(33,41,48,1)" stroke-width="1.5" fill-opacity="1" fill="#ffffff"></path><g id="SvgjsG1021"><text id="SvgjsText1022" font-family="&quot;Microsoft YaHei&quot;, 微软雅黑, Arial" text-anchor="middle" font-size="13px" width="91px" fill="#323232" font-weight="400" align="middle" lineHeight="125%" anchor="middle" family="&quot;Microsoft YaHei&quot;, 微软雅黑, Arial" size="13px" weight="400" font-style="" opacity="1" y="5.875" transform="rotate(0)"><tspan id="SvgjsTspan1023" dy="16.25" x="55.5"><tspan id="SvgjsTspan1024" style="">Raw Dataset</tspan></tspan><tspan id="SvgjsTspan1025" dy="16.25" x="55.5"><tspan id="SvgjsTspan1026" style="">×10001</tspan></tspan></text></g></g><g id="SvgjsG1027" transform="translate(202,134)"><path id="SvgjsPath1028" d="M 16.667 0L 94.333 0C 116.556 0 116.556 50 94.333 50L 16.667 50C -5.556 50 -5.556 0 16.667 0Z" stroke="rgba(33,41,48,1)" stroke-width="1.5" fill-opacity="1" fill="#ffffff"></path><g id="SvgjsG1029"><line id="SvgjsLine1030" x1="14" y1="16" x2="97.34375" y2="16" stroke="#323232" stroke-width="1"></line><line id="SvgjsLine1031" x1="32" y1="32" x2="79.78125" y2="32" stroke="#323232" stroke-width="1"></line><text id="SvgjsText1032" font-family="&quot;Microsoft YaHei&quot;, 微软雅黑, Arial" text-anchor="middle" font-size="13px" width="91px" fill="#323232" font-weight="400" align="middle" lineHeight="125%" anchor="middle" family="&quot;Microsoft YaHei&quot;, 微软雅黑, Arial" size="13px" weight="400" font-style="" opacity="1" y="5.875" transform="rotate(0)"><tspan id="SvgjsTspan1033" dy="16.25" x="55.5"><tspan id="SvgjsTspan1034" style="">Scale Dataset</tspan></tspan><tspan id="SvgjsTspan1035" dy="16.25" x="55.5"><tspan id="SvgjsTspan1036" style="">×10001</tspan></tspan></text></g></g><g id="SvgjsG1037" transform="translate(202,214)"><path id="SvgjsPath1038" d="M 16.667 0L 94.333 0C 116.556 0 116.556 50 94.333 50L 16.667 50C -5.556 50 -5.556 0 16.667 0Z" stroke="rgba(33,41,48,1)" stroke-width="1.5" fill-opacity="1" fill="#ffffff"></path><g id="SvgjsG1039"><line id="SvgjsLine1040" x1="12" y1="16" x2="98.984375" y2="16" stroke="#323232" stroke-width="1"></line><line id="SvgjsLine1041" x1="32" y1="32" x2="79.78125" y2="32" stroke="#323232" stroke-width="1"></line><text id="SvgjsText1042" font-family="&quot;Microsoft YaHei&quot;, 微软雅黑, Arial" text-anchor="middle" font-size="13px" width="91px" fill="#323232" font-weight="400" align="middle" lineHeight="125%" anchor="middle" family="&quot;Microsoft YaHei&quot;, 微软雅黑, Arial" size="13px" weight="400" font-style="" opacity="1" y="5.875" transform="rotate(0)"><tspan id="SvgjsTspan1043" dy="16.25" x="55.5"><tspan id="SvgjsTspan1044" style="">Noise Dataset</tspan></tspan><tspan id="SvgjsTspan1045" dy="16.25" x="55.5"><tspan id="SvgjsTspan1046" style="">×10001</tspan></tspan></text></g></g><g id="SvgjsG1047" transform="translate(25,156)"><path id="SvgjsPath1048" d="M 16.667 0L 94.333 0C 116.556 0 116.556 50 94.333 50L 16.667 50C -5.556 50 -5.556 0 16.667 0Z" stroke="rgba(33,41,48,1)" stroke-width="1.5" fill-opacity="1" fill="#ffffff"></path><g id="SvgjsG1049"><text id="SvgjsText1050" font-family="&quot;Microsoft YaHei&quot;, 微软雅黑, Arial" text-anchor="middle" font-size="13px" width="91px" fill="#323232" font-weight="400" align="middle" lineHeight="125%" anchor="middle" family="&quot;Microsoft YaHei&quot;, 微软雅黑, Arial" size="13px" weight="400" font-style="" opacity="1" y="5.875" transform="rotate(0)"><tspan id="SvgjsTspan1051" dy="16.25" x="55.5"><tspan id="SvgjsTspan1052" style="">Raw Dataset</tspan></tspan><tspan id="SvgjsTspan1053" dy="16.25" x="55.5"><tspan id="SvgjsTspan1054" style="">×10001</tspan></tspan></text></g></g><g id="SvgjsG1055" transform="translate(174,395.5)"><path id="SvgjsPath1056" d="M 0 0L 167 0L 167 40L 0 40Z" stroke="none" fill="none"></path><g id="SvgjsG1057"><text id="SvgjsText1058" font-family="&quot;Microsoft YaHei&quot;, 微软雅黑, Arial" text-anchor="middle" font-size="15px" width="167px" fill="#5b79e8" font-weight="700" align="middle" lineHeight="125%" anchor="middle" family="&quot;Microsoft YaHei&quot;, 微软雅黑, Arial" size="15px" weight="700" font-style="" opacity="1" y="7.625" transform="rotate(0)"><tspan id="SvgjsTspan1059" dy="18.75" x="83.5"><tspan id="SvgjsTspan1060" style="">Data Augmentation</tspan></tspan></text></g></g><g id="SvgjsG1061" transform="translate(227.25,266)"><path id="SvgjsPath1062" d="M 0 0L 60.5 0L 60.5 60.5L 0 60.5Z" stroke="none" fill="url(#SvgjsPattern1063)" opacity="1"></path></g><g id="SvgjsG1065"><path id="SvgjsPath1066" d="M136.75 181L155 181L155 181L171.95 181" stroke="#323232" stroke-width="1" fill="none" marker-end="url(#SvgjsMarker1067)"></path></g><g id="SvgjsG1069" transform="translate(379,78.75)"><path id="SvgjsPath1070" d="M 0 0L 167 0L 167 229.75L 0 229.75Z" stroke="rgba(33,41,48,1)" stroke-width="1.5" fill-opacity="1" fill="#f1ac6a"></path><g id="SvgjsG1071"><text id="SvgjsText1072" font-family="&quot;Microsoft YaHei&quot;, 微软雅黑, Arial" text-anchor="middle" font-size="13px" width="147px" fill="#323232" font-weight="400" align="middle" lineHeight="125%" anchor="middle" family="&quot;Microsoft YaHei&quot;, 微软雅黑, Arial" size="13px" weight="400" font-style="" opacity="1" y="104.25" transform="rotate(0)"></text></g></g><g id="SvgjsG1073" transform="translate(379,395.5)"><path id="SvgjsPath1074" d="M 0 0L 167 0L 167 40L 0 40Z" stroke="none" fill="none"></path><g id="SvgjsG1075"><text id="SvgjsText1076" font-family="&quot;Microsoft YaHei&quot;, 微软雅黑, Arial" text-anchor="middle" font-size="15px" width="167px" fill="#5b79e8" font-weight="700" align="middle" lineHeight="125%" anchor="middle" family="&quot;Microsoft YaHei&quot;, 微软雅黑, Arial" size="15px" weight="700" font-style="" opacity="1" y="7.625" transform="rotate(0)"><tspan id="SvgjsTspan1077" dy="18.75" x="83.5"><tspan id="SvgjsTspan1078" style="">TS Transformation</tspan></tspan></text></g></g><g id="SvgjsG1079" transform="translate(412.5,92.25)"><path id="SvgjsPath1080" d="M 11.667 0L 88.333 0C 103.889 0 103.889 35 88.333 35L 11.667 35C -3.889 35 -3.889 0 11.667 0Z" stroke="rgba(33,41,48,1)" stroke-width="1.5" fill-opacity="1" fill="#ffffff"></path><g id="SvgjsG1081"><text id="SvgjsText1082" font-family="&quot;Microsoft YaHei&quot;, 微软雅黑, Arial" text-anchor="middle" font-size="13px" width="80px" fill="#323232" font-weight="400" align="middle" lineHeight="125%" anchor="middle" family="&quot;Microsoft YaHei&quot;, 微软雅黑, Arial" size="13px" weight="400" font-style="" opacity="1" y="6.875" transform="rotate(0)"><tspan id="SvgjsTspan1083" dy="16.25" x="50"><tspan id="SvgjsTspan1084" style="">RAW</tspan></tspan></text></g></g><g id="SvgjsG1085" transform="translate(412.5,139.25)"><path id="SvgjsPath1086" d="M 11.667 0L 88.333 0C 103.889 0 103.889 35 88.333 35L 11.667 35C -3.889 35 -3.889 0 11.667 0Z" stroke="rgba(33,41,48,1)" stroke-width="1.5" fill-opacity="1" fill="#ffffff"></path><g id="SvgjsG1087"><text id="SvgjsText1088" font-family="&quot;Microsoft YaHei&quot;, 微软雅黑, Arial" text-anchor="middle" font-size="13px" width="80px" fill="#323232" font-weight="400" align="middle" lineHeight="125%" anchor="middle" family="&quot;Microsoft YaHei&quot;, 微软雅黑, Arial" size="13px" weight="400" font-style="" opacity="1" y="6.875" transform="rotate(0)"><tspan id="SvgjsTspan1089" dy="16.25" x="50"><tspan id="SvgjsTspan1090" style="">CUMSUM</tspan></tspan></text></g></g><g id="SvgjsG1091"><path id="SvgjsPath1092" d="M313.7165612157467 79.22144982295691L410.5413993436257 109.14470381725118" stroke="#323232" stroke-width="1" fill="none" marker-end="url(#SvgjsMarker1093)"></path></g><g id="SvgjsG1095"><path id="SvgjsPath1096" d="M313.5909732545176 79.46179065868085L410.8846731043186 155.48777219960573" stroke="#323232" stroke-width="1" fill="none" marker-end="url(#SvgjsMarker1097)"></path></g><g id="SvgjsG1099" transform="translate(575,153)"><path id="SvgjsPath1100" d="M 0 0L 411 0L 411 56L 0 56Z" stroke="rgba(33,41,48,1)" stroke-width="1.5" fill-opacity="1" fill="#f1ac6a"></path><g id="SvgjsG1101"><text id="SvgjsText1102" font-family="&quot;Microsoft YaHei&quot;, 微软雅黑, Arial" text-anchor="middle" font-size="13px" width="391px" fill="#323232" font-weight="400" align="middle" lineHeight="125%" anchor="middle" family="&quot;Microsoft YaHei&quot;, 微软雅黑, Arial" size="13px" weight="400" font-style="" opacity="1" y="17.375" transform="rotate(0)"></text></g></g><g id="SvgjsG1103" transform="translate(589.5,163.5)"><path id="SvgjsPath1104" d="M 11.667 0L 60.833 0C 76.389 0 76.389 35 60.833 35L 11.667 35C -3.889 35 -3.889 0 11.667 0Z" stroke="rgba(33,41,48,1)" stroke-width="1.5" fill-opacity="1" fill="#ffffff"></path><g id="SvgjsG1105"><text id="SvgjsText1106" font-family="&quot;Microsoft YaHei&quot;, 微软雅黑, Arial" text-anchor="middle" font-size="13px" width="53px" fill="#323232" font-weight="400" align="middle" lineHeight="125%" anchor="middle" family="&quot;Microsoft YaHei&quot;, 微软雅黑, Arial" size="13px" weight="400" font-style="" opacity="1" y="6.875" transform="rotate(0)"><tspan id="SvgjsTspan1107" dy="16.25" x="36.5"><tspan id="SvgjsTspan1108" style="">Stats</tspan></tspan></text></g></g><g id="SvgjsG1109" transform="translate(676.5,163.5)"><path id="SvgjsPath1110" d="M 11.667 0L 60.833 0C 76.389 0 76.389 35 60.833 35L 11.667 35C -3.889 35 -3.889 0 11.667 0Z" stroke="rgba(33,41,48,1)" stroke-width="1.5" fill-opacity="1" fill="#ffffff"></path><g id="SvgjsG1111"><text id="SvgjsText1112" font-family="&quot;Microsoft YaHei&quot;, 微软雅黑, Arial" text-anchor="middle" font-size="13px" width="53px" fill="#323232" font-weight="400" align="middle" lineHeight="125%" anchor="middle" family="&quot;Microsoft YaHei&quot;, 微软雅黑, Arial" size="13px" weight="400" font-style="" opacity="1" y="6.875" transform="rotate(0)"><tspan id="SvgjsTspan1113" dy="16.25" x="36.5"><tspan id="SvgjsTspan1114" style="">Test</tspan></tspan></text></g></g><g id="SvgjsG1115" transform="translate(899,163.5)"><path id="SvgjsPath1116" d="M 11.667 0L 60.833 0C 76.389 0 76.389 35 60.833 35L 11.667 35C -3.889 35 -3.889 0 11.667 0Z" stroke="rgba(33,41,48,1)" stroke-width="1.5" fill-opacity="1" fill="#ffffff"></path><g id="SvgjsG1117"><text id="SvgjsText1118" font-family="&quot;Microsoft YaHei&quot;, 微软雅黑, Arial" text-anchor="middle" font-size="13px" width="53px" fill="#323232" font-weight="400" align="middle" lineHeight="125%" anchor="middle" family="&quot;Microsoft YaHei&quot;, 微软雅黑, Arial" size="13px" weight="400" font-style="" opacity="1" y="6.875" transform="rotate(0)"><tspan id="SvgjsTspan1119" dy="16.25" x="36.5"><tspan id="SvgjsTspan1120" style="">Antropy</tspan></tspan></text></g></g><g id="SvgjsG1121" transform="translate(812,163.5)"><path id="SvgjsPath1122" d="M 11.667 0L 60.833 0C 76.389 0 76.389 35 60.833 35L 11.667 35C -3.889 35 -3.889 0 11.667 0Z" stroke="rgba(33,41,48,1)" stroke-width="1.5" fill-opacity="1" fill="#ffffff"></path><g id="SvgjsG1123"><text id="SvgjsText1124" font-family="&quot;Microsoft YaHei&quot;, 微软雅黑, Arial" text-anchor="middle" font-size="13px" width="53px" fill="#323232" font-weight="400" align="middle" lineHeight="125%" anchor="middle" family="&quot;Microsoft YaHei&quot;, 微软雅黑, Arial" size="13px" weight="400" font-style="" opacity="1" y="6.875" transform="rotate(0)"><tspan id="SvgjsTspan1125" dy="16.25" x="36.5"><tspan id="SvgjsTspan1126" style="">Tsfresh</tspan></tspan></text></g></g><g id="SvgjsG1127" transform="translate(762.5,163)"><path id="SvgjsPath1128" d="M 0 0L 36 0L 36 36L 0 36Z" stroke="none" fill="url(#SvgjsPattern1129)" opacity="1"></path></g><g id="SvgjsG1131" transform="translate(697,395.5)"><path id="SvgjsPath1132" d="M 0 0L 167 0L 167 40L 0 40Z" stroke="none" fill="none"></path><g id="SvgjsG1133"><text id="SvgjsText1134" font-family="&quot;Microsoft YaHei&quot;, 微软雅黑, Arial" text-anchor="middle" font-size="15px" width="167px" fill="#5b79e8" font-weight="700" align="middle" lineHeight="125%" anchor="middle" family="&quot;Microsoft YaHei&quot;, 微软雅黑, Arial" size="15px" weight="700" font-style="" opacity="1" y="7.625" transform="rotate(0)"><tspan id="SvgjsTspan1135" dy="18.75" x="83.5"><tspan id="SvgjsTspan1136" style="">TS Feature Extraction</tspan></tspan></text></g></g><g id="SvgjsG1137"><path id="SvgjsPath1138" d="M512.9945783637311 110.31381933465343L573.6481524724683 179.4588938186139" stroke="#323232" stroke-width="1" fill="none" marker-end="url(#SvgjsMarker1139)"></path></g><g id="SvgjsG1141"><path id="SvgjsPath1142" d="M513.1992132466004 157.02129473968097L573.0888171259589 180.2584610448721" stroke="#323232" stroke-width="1" fill="none" marker-end="url(#SvgjsMarker1143)"></path></g><g id="SvgjsG1145" transform="translate(1101,395.5)"><path id="SvgjsPath1146" d="M 0 0L 167 0L 167 40L 0 40Z" stroke="none" fill="none"></path><g id="SvgjsG1147"><text id="SvgjsText1148" font-family="&quot;Microsoft YaHei&quot;, 微软雅黑, Arial" text-anchor="middle" font-size="15px" width="167px" fill="#5b79e8" font-weight="700" align="middle" lineHeight="125%" anchor="middle" family="&quot;Microsoft YaHei&quot;, 微软雅黑, Arial" size="15px" weight="700" font-style="" opacity="1" y="7.625" transform="rotate(0)"><tspan id="SvgjsTspan1149" dy="18.75" x="83.5"><tspan id="SvgjsTspan1150" style="">TS Feature Selection</tspan></tspan></text></g></g><g id="SvgjsG1151" transform="translate(970,44)"><path id="SvgjsPath1152" d="M 0 0L 429 0L 429 77L 0 77Z" stroke="rgba(33,41,48,1)" stroke-width="1.5" fill-opacity="1" fill="#fadded"></path><g id="SvgjsG1153"><text id="SvgjsText1154" font-family="&quot;Microsoft YaHei&quot;, 微软雅黑, Arial" text-anchor="middle" font-size="13px" width="409px" fill="#323232" font-weight="400" align="middle" lineHeight="125%" anchor="middle" family="&quot;Microsoft YaHei&quot;, 微软雅黑, Arial" size="13px" weight="400" font-style="" opacity="1" y="27.875" transform="rotate(0)"></text></g></g><g id="SvgjsG1155" transform="translate(998,57.5)"><path id="SvgjsPath1156" d="M 16.667 0L 94.333 0C 116.556 0 116.556 50 94.333 50L 16.667 50C -5.556 50 -5.556 0 16.667 0Z" stroke="rgba(33,41,48,1)" stroke-width="1.5" fill-opacity="1" fill="#ffffff"></path><g id="SvgjsG1157"><text id="SvgjsText1158" font-family="&quot;Microsoft YaHei&quot;, 微软雅黑, Arial" text-anchor="middle" font-size="13px" width="91px" fill="#323232" font-weight="400" align="middle" lineHeight="125%" anchor="middle" family="&quot;Microsoft YaHei&quot;, 微软雅黑, Arial" size="13px" weight="400" font-style="" opacity="1" y="5.875" transform="rotate(0)"><tspan id="SvgjsTspan1159" dy="16.25" x="55.5"><tspan id="SvgjsTspan1160" style="">Correlation</tspan></tspan><tspan id="SvgjsTspan1161" dy="16.25" x="55.5"><tspan id="SvgjsTspan1162" style="">Filter</tspan></tspan></text></g></g><g id="SvgjsG1163" transform="translate(1260,57.49999999999997)"><path id="SvgjsPath1164" d="M 16.667 0L 94.333 0C 116.556 0 116.556 50 94.333 50L 16.667 50C -5.556 50 -5.556 0 16.667 0Z" stroke="rgba(33,41,48,1)" stroke-width="1.5" fill-opacity="1" fill="#ffffff"></path><g id="SvgjsG1165"><text id="SvgjsText1166" font-family="&quot;Microsoft YaHei&quot;, 微软雅黑, Arial" text-anchor="middle" font-size="13px" width="91px" fill="#323232" font-weight="400" align="middle" lineHeight="125%" anchor="middle" family="&quot;Microsoft YaHei&quot;, 微软雅黑, Arial" size="13px" weight="400" font-style="" opacity="1" y="5.875" transform="rotate(0)"><tspan id="SvgjsTspan1167" dy="16.25" x="55.5"><tspan id="SvgjsTspan1168" style="">Perm Imp</tspan></tspan><tspan id="SvgjsTspan1169" dy="16.25" x="55.5"><tspan id="SvgjsTspan1170" style="">Filter</tspan></tspan></text></g></g><g id="SvgjsG1171" transform="translate(1121.75,153)"><path id="SvgjsPath1172" d="M 0 0L 125.5 0L 125.5 56L 0 56Z" stroke="rgba(33,41,48,1)" stroke-width="1.5" fill-opacity="1" fill="#f1ac6a"></path><g id="SvgjsG1173"><text id="SvgjsText1174" font-family="&quot;Microsoft YaHei&quot;, 微软雅黑, Arial" text-anchor="middle" font-size="13px" width="106px" fill="#323232" font-weight="400" align="middle" lineHeight="125%" anchor="middle" family="&quot;Microsoft YaHei&quot;, 微软雅黑, Arial" size="13px" weight="400" font-style="" opacity="1" y="17.375" transform="rotate(0)"></text></g></g><g id="SvgjsG1175" transform="translate(1136.25,163.5)"><path id="SvgjsPath1176" d="M 11.667 0L 84.833 0C 100.389 0 100.389 35 84.833 35L 11.667 35C -3.889 35 -3.889 0 11.667 0Z" stroke="rgba(33,41,48,1)" stroke-width="1.5" fill-opacity="1" fill="#ffffff"></path><g id="SvgjsG1177"><text id="SvgjsText1178" font-family="&quot;Microsoft YaHei&quot;, 微软雅黑, Arial" text-anchor="middle" font-size="13px" width="77px" fill="#323232" font-weight="400" align="middle" lineHeight="125%" anchor="middle" family="&quot;Microsoft YaHei&quot;, 微软雅黑, Arial" size="13px" weight="400" font-style="" opacity="1" y="6.875" transform="rotate(0)"><tspan id="SvgjsTspan1179" dy="16.25" x="48.5"><tspan id="SvgjsTspan1180" style="">Interaction</tspan></tspan></text></g></g><g id="SvgjsG1181" transform="translate(1037,228)"><path id="SvgjsPath1182" d="M 0 0L 295 0L 295 78L 0 78Z" stroke="rgba(33,41,48,1)" stroke-width="1.5" fill-opacity="1" fill="#fadded"></path><g id="SvgjsG1183"><text id="SvgjsText1184" font-family="&quot;Microsoft YaHei&quot;, 微软雅黑, Arial" text-anchor="middle" font-size="13px" width="275px" fill="#323232" font-weight="400" align="middle" lineHeight="125%" anchor="middle" family="&quot;Microsoft YaHei&quot;, 微软雅黑, Arial" size="13px" weight="400" font-style="" opacity="1" y="28.375" transform="rotate(0)"></text></g></g><g id="SvgjsG1185" transform="translate(1129,335.5)"><path id="SvgjsPath1186" d="M 16.667 0L 94.333 0C 116.556 0 116.556 50 94.333 50L 16.667 50C -5.556 50 -5.556 0 16.667 0Z" stroke="rgba(33,41,48,1)" stroke-width="1.5" fill-opacity="1" fill="#ffffff"></path><g id="SvgjsG1187"><text id="SvgjsText1188" font-family="&quot;Microsoft YaHei&quot;, 微软雅黑, Arial" text-anchor="middle" font-size="13px" width="91px" fill="#323232" font-weight="400" align="middle" lineHeight="125%" anchor="middle" family="&quot;Microsoft YaHei&quot;, 微软雅黑, Arial" size="13px" weight="400" font-style="" opacity="1" y="5.875" transform="rotate(0)"><tspan id="SvgjsTspan1189" dy="16.25" x="55.5"><tspan id="SvgjsTspan1190" style="">Feature</tspan></tspan><tspan id="SvgjsTspan1191" dy="16.25" x="55.5"><tspan id="SvgjsTspan1192" style="">DataFrame</tspan></tspan></text></g></g><g id="SvgjsG1193" transform="translate(1129,57.5)"><path id="SvgjsPath1194" d="M 16.667 0L 94.333 0C 116.556 0 116.556 50 94.333 50L 16.667 50C -5.556 50 -5.556 0 16.667 0Z" stroke="rgba(33,41,48,1)" stroke-width="1.5" fill-opacity="1" fill="#ffffff"></path><g id="SvgjsG1195"><text id="SvgjsText1196" font-family="&quot;Microsoft YaHei&quot;, 微软雅黑, Arial" text-anchor="middle" font-size="13px" width="91px" fill="#323232" font-weight="400" align="middle" lineHeight="125%" anchor="middle" family="&quot;Microsoft YaHei&quot;, 微软雅黑, Arial" size="13px" weight="400" font-style="" opacity="1" y="5.875" transform="rotate(0)"><tspan id="SvgjsTspan1197" dy="16.25" x="55.5"><tspan id="SvgjsTspan1198" style="">Feature Imp</tspan></tspan><tspan id="SvgjsTspan1199" dy="16.25" x="55.5"><tspan id="SvgjsTspan1200" style="">Filter</tspan></tspan></text></g></g><g id="SvgjsG1201"><path id="SvgjsPath1202" d="M1109.75 82.5L1119 82.5L1119 82.5L1126.95 82.5" stroke="#323232" stroke-width="1" fill="none" marker-end="url(#SvgjsMarker1203)"></path></g><g id="SvgjsG1205"><path id="SvgjsPath1206" d="M1240.75 82.5L1257.95 82.5" stroke="#323232" stroke-width="1" fill="none" marker-end="url(#SvgjsMarker1207)"></path></g><g id="SvgjsG1209"><path id="SvgjsPath1210" d="M986.75 181L1053.5 181L1053.5 109.55000000000001" stroke="#323232" stroke-width="1" fill="none" marker-end="url(#SvgjsMarker1211)"></path></g><g id="SvgjsG1213"><path id="SvgjsPath1214" d="M1315.5 108.25L1315.5 132.47222222222223L1184.5 132.47222222222223L1184.5 150.95" stroke="#323232" stroke-width="1" fill="none" marker-end="url(#SvgjsMarker1215)"></path></g><g id="SvgjsG1217" transform="translate(412.5,186.25)"><path id="SvgjsPath1218" d="M 11.667 0L 88.333 0C 103.889 0 103.889 35 88.333 35L 11.667 35C -3.889 35 -3.889 0 11.667 0Z" stroke="rgba(33,41,48,1)" stroke-width="1.5" fill-opacity="1" fill="#ffffff"></path><g id="SvgjsG1219"><text id="SvgjsText1220" font-family="&quot;Microsoft YaHei&quot;, 微软雅黑, Arial" text-anchor="middle" font-size="13px" width="80px" fill="#323232" font-weight="400" align="middle" lineHeight="125%" anchor="middle" family="&quot;Microsoft YaHei&quot;, 微软雅黑, Arial" size="13px" weight="400" font-style="" opacity="1" y="6.875" transform="rotate(0)"><tspan id="SvgjsTspan1221" dy="16.25" x="50"><tspan id="SvgjsTspan1222" style="">DIFF</tspan></tspan></text></g></g><g id="SvgjsG1223" transform="translate(412.5,233.25)"><path id="SvgjsPath1224" d="M 11.667 0L 88.333 0C 103.889 0 103.889 35 88.333 35L 11.667 35C -3.889 35 -3.889 0 11.667 0Z" stroke="rgba(33,41,48,1)" stroke-width="1.5" fill-opacity="1" fill="#ffffff"></path><g id="SvgjsG1225"><line id="SvgjsLine1226" x1="29" y1="17" x2="70.140625" y2="17" stroke="#323232" stroke-width="1"></line><text id="SvgjsText1227" font-family="&quot;Microsoft YaHei&quot;, 微软雅黑, Arial" text-anchor="middle" font-size="13px" width="80px" fill="#323232" font-weight="400" align="middle" lineHeight="125%" anchor="middle" family="&quot;Microsoft YaHei&quot;, 微软雅黑, Arial" size="13px" weight="400" font-style="" opacity="1" y="6.875" transform="rotate(0)"><tspan id="SvgjsTspan1228" dy="16.25" x="50"><tspan id="SvgjsTspan1229" style="">ASINH</tspan></tspan></text></g></g><g id="SvgjsG1230"><path id="SvgjsPath1231" d="M313.46766100445274 79.58633879703996L411.22172658782927 202.14734062142412" stroke="#323232" stroke-width="1" fill="none" marker-end="url(#SvgjsMarker1232)"></path></g><g id="SvgjsG1234"><path id="SvgjsPath1235" d="M513.2047627232176 203.49346636874878L573.0736485565386 181.70119192541995" stroke="#323232" stroke-width="1" fill="none" marker-end="url(#SvgjsMarker1236)"></path></g><g id="SvgjsG1238" transform="translate(438.5000057220459,264)"><path id="SvgjsPath1239" d="M 0 0L 48 0L 48 46.25L 0 46.25Z" stroke="none" fill="url(#SvgjsPattern1240)" opacity="1"></path></g><g id="SvgjsG1242" transform="translate(1194.5,242.75)"><path id="SvgjsPath1243" d="M 16.667 0L 94.333 0C 116.556 0 116.556 50 94.333 50L 16.667 50C -5.556 50 -5.556 0 16.667 0Z" stroke="rgba(33,41,48,1)" stroke-width="1.5" fill-opacity="1" fill="#ffffff"></path><g id="SvgjsG1244"><text id="SvgjsText1245" font-family="&quot;Microsoft YaHei&quot;, 微软雅黑, Arial" text-anchor="middle" font-size="13px" width="91px" fill="#323232" font-weight="400" align="middle" lineHeight="125%" anchor="middle" family="&quot;Microsoft YaHei&quot;, 微软雅黑, Arial" size="13px" weight="400" font-style="" opacity="1" y="5.875" transform="rotate(0)"><tspan id="SvgjsTspan1246" dy="16.25" x="55.5"><tspan id="SvgjsTspan1247" style="">Perm Imp</tspan></tspan><tspan id="SvgjsTspan1248" dy="16.25" x="55.5"><tspan id="SvgjsTspan1249" style="">Filter</tspan></tspan></text></g></g><g id="SvgjsG1250" transform="translate(1063.5,242.75)"><path id="SvgjsPath1251" d="M 16.667 0L 94.333 0C 116.556 0 116.556 50 94.333 50L 16.667 50C -5.556 50 -5.556 0 16.667 0Z" stroke="rgba(33,41,48,1)" stroke-width="1.5" fill-opacity="1" fill="#ffffff"></path><g id="SvgjsG1252"><text id="SvgjsText1253" font-family="&quot;Microsoft YaHei&quot;, 微软雅黑, Arial" text-anchor="middle" font-size="13px" width="91px" fill="#323232" font-weight="400" align="middle" lineHeight="125%" anchor="middle" family="&quot;Microsoft YaHei&quot;, 微软雅黑, Arial" size="13px" weight="400" font-style="" opacity="1" y="5.875" transform="rotate(0)"><tspan id="SvgjsTspan1254" dy="16.25" x="55.5"><tspan id="SvgjsTspan1255" style="">Feature Imp</tspan></tspan><tspan id="SvgjsTspan1256" dy="16.25" x="55.5"><tspan id="SvgjsTspan1257" style="">Filter</tspan></tspan></text></g></g><g id="SvgjsG1258"><path id="SvgjsPath1259" d="M1175.25 267.75L1192.45 267.75" stroke="#323232" stroke-width="1" fill="none" marker-end="url(#SvgjsMarker1260)"></path></g><g id="SvgjsG1262"><path id="SvgjsPath1263" d="M1184.5 209.75L1184.5 218.7211538461538L1119 218.7211538461538L1119 240.7" stroke="#323232" stroke-width="1" fill="none" marker-end="url(#SvgjsMarker1264)"></path></g><g id="SvgjsG1266"><path id="SvgjsPath1267" d="M1250 293.5L1250 313.5L1184.5 313.5L1184.5 333.45000000000005" stroke="#323232" stroke-width="1" fill="none" marker-end="url(#SvgjsMarker1268)"></path></g><g id="SvgjsG1270" transform="translate(396.81818181818187,464.09090909090924)"><path id="SvgjsPath1271" d="M 0 0L 181.636 0L 181.636 44.273L 0 44.273Z" stroke="rgba(33,41,48,1)" stroke-width="1.5" fill-opacity="1" fill="#dbf5f5"></path><g id="SvgjsG1272"><text id="SvgjsText1273" font-family="&quot;Microsoft YaHei&quot;, 微软雅黑, Arial" text-anchor="middle" font-size="13px" width="162px" fill="#323232" font-weight="400" align="middle" lineHeight="125%" anchor="middle" family="&quot;Microsoft YaHei&quot;, 微软雅黑, Arial" size="13px" weight="400" font-style="italic" opacity="1" y="11.511500000000002" transform="rotate(0)"><tspan id="SvgjsTspan1274" dy="16.25" x="91"><tspan id="SvgjsTspan1275" style="">Enhance at Sample Dim</tspan></tspan></text></g></g><g id="SvgjsG1276" transform="translate(597.9772727272727,464.09090909090924)"><path id="SvgjsPath1277" d="M 0 0L 181.636 0L 181.636 44.273L 0 44.273Z" stroke="rgba(33,41,48,1)" stroke-width="1.5" fill-opacity="1" fill="#f1ac6a"></path><g id="SvgjsG1278"><text id="SvgjsText1279" font-family="&quot;Microsoft YaHei&quot;, 微软雅黑, Arial" text-anchor="middle" font-size="13px" width="162px" fill="#323232" font-weight="400" align="middle" lineHeight="125%" anchor="middle" family="&quot;Microsoft YaHei&quot;, 微软雅黑, Arial" size="13px" weight="400" font-style="italic" opacity="1" y="11.511500000000002" transform="rotate(0)"><tspan id="SvgjsTspan1280" dy="16.25" x="91"><tspan id="SvgjsTspan1281" style="">Enhance at Feature Dim</tspan></tspan></text></g></g><g id="SvgjsG1282" transform="translate(799.1363636363635,464.09090909090924)"><path id="SvgjsPath1283" d="M 0 0L 181.636 0L 181.636 44.273L 0 44.273Z" stroke="rgba(33,41,48,1)" stroke-width="1.5" fill-opacity="1" fill="#fadded"></path><g id="SvgjsG1284"><text id="SvgjsText1285" font-family="&quot;Microsoft YaHei&quot;, 微软雅黑, Arial" text-anchor="middle" font-size="13px" width="162px" fill="#323232" font-weight="400" align="middle" lineHeight="125%" anchor="middle" family="&quot;Microsoft YaHei&quot;, 微软雅黑, Arial" size="13px" weight="400" font-style="italic" opacity="1" y="11.511500000000002" transform="rotate(0)"><tspan id="SvgjsTspan1286" dy="16.25" x="91"><tspan id="SvgjsTspan1287" style="">Delete at Feature Dim</tspan></tspan></text></g></g><g id="SvgjsG1288"></g></svg>